<svg width="30" height="30" viewBox="0 0 30 30" fill="none" xmlns="http://www.w3.org/2000/svg">
<path d="M29.7083 12.0623H28.5V12H15V18H23.4773C22.2405 21.4928 18.9172 24 15 24C10.0297 24 6 19.9702 6 15C6 10.0297 10.0297 6 15 6C17.2943 6 19.3815 6.8655 20.9708 8.27925L25.2135 4.0365C22.5345 1.53975 18.951 0 15 0C6.71625 0 0 6.71625 0 15C0 23.2838 6.71625 30 15 30C23.2838 30 30 23.2838 30 15C30 13.9943 29.8965 13.0125 29.7083 12.0623Z" fill="#FFC107"/>
<path d="M1.71429 7.68074L6.75083 11.1429C8.11363 7.98033 11.4141 5.74744 15.2764 5.74744C17.621 5.74744 19.7542 6.57651 21.3783 7.93075L25.7143 3.86659C22.9764 1.47494 19.3142 0 15.2764 0C9.38829 0 4.282 3.11583 1.71429 7.68074Z" fill="#FF3D00"/>
<path d="M15.4043 30C19.3764 30 22.9855 28.5122 25.7143 26.0928L20.9549 22.151C19.3591 23.3388 17.4091 23.9812 15.4043 23.9797C11.4046 23.9797 8.00839 21.4835 6.72897 18L1.71429 21.7815C4.25931 26.6557 9.42776 30 15.4043 30Z" fill="#4CAF50"/>
<path d="M29.7166 12.0642H28.5429V12H15.4286V18.1913H23.6636C23.0889 19.9066 22.0537 21.4055 20.686 22.5028L20.6881 22.5012L25.198 26.555C24.8789 26.863 30 22.8348 30 15.0957C30 14.0578 29.8995 13.0448 29.7166 12.0642Z" fill="#1976D2"/>
</svg>
