<svg width="125" height="1024" viewBox="0 0 125 1024" fill="none" xmlns="http://www.w3.org/2000/svg">
<path fill-rule="evenodd" clip-rule="evenodd" d="M-1.08261e-06 1024C81.4405 929.37 166.939 775.601 100.581 634.817C30.7372 486.637 59.5115 398.721 86.4319 316.47C91.4258 301.212 96.3559 286.149 100.581 270.932C112.975 212.819 119.552 107.148 91.8587 -1.00001H-1.08261e-06L-1.08261e-06 1024Z" fill="#AEEBF9"/>
<path opacity="0.4" fill-rule="evenodd" clip-rule="evenodd" d="M94.0722 1024C126.449 950.281 138.299 867.483 100.273 788.843C30.4417 644.431 59.2109 558.75 86.1264 478.591C91.1193 463.721 96.0485 449.041 100.273 434.211C119.272 347.376 125.176 146.385 14.4113 -1H-1.93193e-06L-1.93193e-06 1024H94.0722Z" fill="#CFE7EC"/>
<path fill-rule="evenodd" clip-rule="evenodd" d="M15.0879 1024C74.8304 936.333 116.458 822.863 64.3125 717.062C-5.53114 575.35 23.2432 491.272 50.1636 412.612C55.1575 398.02 60.0876 383.614 64.3125 369.062C81.1432 293.591 87.2468 134.252 11.3734 -1H6.7578e-06L6.7578e-06 1024L15.0879 1024Z" fill="white"/>
</svg>
